<svg width="400" height="300" xmlns="http://www.w3.org/2000/svg">
 <g id="Layer_1">
  <title>Layer 1</title>
  <path transform="rotate(-0.44036 204.874 157)" stroke="#000" stroke-width="5" d="m50.20752,199.3138c0,0 -1.99915,-4.02033 -3.40833,-6.50982c-2.22811,-3.93626 -3.79041,-9.55388 -5.11249,-14.1046c-1.2189,-4.19558 -0.85208,-7.59479 -0.85208,-9.76473c0,-3.25491 0,-8.67976 0,-9.76473c0,-4.33988 -0.27297,-7.6228 0,-9.76473c0.43162,-3.38667 0.85208,-4.33988 1.70416,-7.59479c0.85208,-3.25491 2.29427,-4.54169 3.40833,-6.50982c0.70459,-1.24474 2.39661,-3.47928 4.26041,-5.42485c2.37588,-2.4801 4.86152,-3.63052 6.81665,-5.42485c1.54567,-1.41854 3.40833,-2.16994 3.40833,-2.16994c0.85208,-1.08497 0.85208,-1.08497 1.70416,-1.08497c0,0 0.9818,-0.8304 2.55624,0c2.2266,1.17437 1.88452,1.85978 4.26041,4.33988c0.9319,0.97277 1.70416,1.08497 1.70416,1.08497c0,0 0.85208,0 1.70416,0c0,0 0.85208,0 0.85208,0c0,0 0,0 0.85208,0c0.85208,0 0.65215,-0.16517 0,-2.16994c-0.46115,-1.41758 -0.35824,-3.34802 -0.85208,-5.42485c-0.89028,-3.74407 -2.12463,-6.37805 -2.55624,-9.76473c-0.27297,-2.14193 0,-4.33988 0,-6.50982c0,-2.16994 0.81388,-3.85072 1.70416,-7.59479c0.49384,-2.07683 1.60006,-5.43298 1.70416,-6.50982c0.42925,-4.43992 2.55624,-6.50982 3.40833,-8.67976c0.85208,-2.16994 2.55624,-3.25491 3.40833,-4.33988c0.85208,-1.08497 1.07071,-3.70935 5.11249,-5.42485c2.42506,-1.02929 6.02659,-2.0418 10.22498,-5.42485c2.59606,-2.0919 5.96457,-4.33988 10.22498,-6.50982c4.26041,-2.16994 5.98738,-2.41921 6.81665,-2.16994c1.85433,0.5574 4.78266,4.0888 9.3729,6.50982c3.2458,1.71192 6.72169,3.46549 11.07706,6.50982c3.34041,2.3349 6.3157,3.22079 9.3729,5.42485c1.04862,0.75598 2.55624,2.16994 4.26041,4.33988c0.85208,1.08497 1.70416,2.16994 2.55624,3.25491c0.85208,1.08497 0.85208,1.08497 1.70416,2.16994c0,0 -0.32608,-0.08259 0,-1.08497c0.46115,-1.41758 0.85208,-3.25491 4.26041,-7.59479c1.70416,-2.16994 2.90693,-6.94815 5.96457,-11.93467c2.22475,-3.62821 4.30074,-5.35745 7.66873,-8.67976c4.31312,-4.25462 8.14436,-8.1582 11.07706,-10.8497c3.09134,-2.83709 5.11249,-3.25491 5.96457,-4.33988c0.85208,-1.08497 3.2961,-2.48305 6.81665,-4.33988c2.48942,-1.31298 4.26041,-1.08497 10.22498,-2.16994c5.96457,-1.08497 12.78122,-1.08497 18.74579,-1.08497c3.40833,0 6.15434,0.78551 9.3729,4.33988c1.82068,2.01065 4.26041,4.33988 6.81665,7.59479c3.40833,4.33988 4.57375,6.03668 7.66873,9.76473c2.23183,2.68832 4.61731,4.79432 5.96457,6.50982c1.34727,1.7155 2.67919,3.18346 3.40833,5.42485c1.03114,3.16981 1.37808,5.50744 1.70416,6.50982c0.46115,1.41758 0.85208,2.16994 0.85208,2.16994c0,0 -0.39153,-1.14301 0,-3.25491c0.43774,-2.36117 2.31264,-5.6545 4.26041,-8.67976c0.76398,-1.1866 2.16318,-3.91287 4.26041,-5.42485c3.0572,-2.20406 5.96886,-0.93114 7.66873,-1.08497c6.00997,-0.54386 8.52082,-2.16994 13.63331,-2.16994c5.11249,0 11.92914,-1.08497 17.04163,-1.08497c1.70416,0 3.40833,0 5.11249,0c3.40833,0 5.96457,0 9.3729,0c5.96457,0 7.66873,0 8.52082,1.08497c1.70416,2.16994 2.64434,5.32321 3.40833,6.50982c1.94776,3.02525 2.34775,5.56807 4.26041,9.76473c1.54201,3.38346 2.67919,7.52333 3.40833,9.76473c1.03114,3.16981 2.0951,5.09223 2.55624,6.50982c0.32608,1.00238 0,3.25491 0,4.33988c0,1.08497 0,3.25491 0,4.33988c0,1.08497 0,1.08497 0,2.16994c0,0 0,1.08497 1.70416,1.08497c0.85208,0 4.22957,0.1257 6.81665,1.08497c3.37312,1.25072 5.11249,3.25491 7.66873,5.42485c2.55624,2.16994 4.26041,4.33988 6.81665,7.59479c0.85208,1.08497 3.55582,3.09513 4.26041,4.33988c1.11404,1.96813 1.70416,3.25491 4.26041,6.50982c1.70416,2.16994 2.97672,3.12314 3.40833,6.50982c0.27298,2.14193 0.44263,4.38191 0.85208,7.59479c0.43161,3.38667 0.26477,6.59688 0.85208,9.76473c0.43774,2.36117 0.85208,5.42485 0.85208,6.50982c0,3.25491 0,5.42485 0,8.67976c0,2.16994 0.26196,4.54169 -0.85208,6.50982c-1.40918,2.48951 -3.40833,5.42485 -4.26041,6.50982c-0.85208,1.08497 -2.29501,2.66772 -3.40833,3.25491c-2.36169,1.24559 -4.20429,1.24152 -5.96457,2.16994c-2.48942,1.31297 -5.1477,0.91922 -8.52082,2.16994c-2.58708,0.95925 -6.03296,1.4221 -8.52082,2.16994c-1.85436,0.55738 -2.45275,2.70534 -5.11249,3.25491c-1.68216,0.3476 -3.40833,0 -5.96457,0c-1.70416,0 -3.40833,-1.08497 -3.40833,0c0,1.08497 0.85208,1.08497 0.85208,2.16994c0,0 0.85208,2.16994 0.85208,5.42485c0,1.08497 0,8.67976 0,13.01963c0,4.33988 0,8.67976 0,11.93467c0,3.25491 -0.11135,7.73445 -0.85208,10.8497c-0.89031,3.74405 -3.57371,5.30393 -5.96457,10.8497c-0.91683,2.1267 -2.30526,4.71549 -4.26041,6.50982c-1.54565,1.41856 -4.05685,2.62117 -6.81665,4.33988c-2.42051,1.5074 -5.11249,1.08497 -9.3729,2.16994c-4.26041,1.08497 -6.81665,1.08497 -9.3729,1.08497c-3.40833,0 -5.96457,0 -6.81665,0c-1.70416,0 -5.13449,0.3476 -6.81665,0c-2.65971,-0.54957 -4.4189,-1.83635 -5.96457,-3.25491c-0.97757,-0.89717 -1.70416,-1.08497 -1.70416,-1.08497c-0.85208,0 -0.85208,0 -2.55624,0c0,0 0,-1.08497 0,0c0,0 -2.55624,2.16994 -4.26041,4.33988c-1.70416,2.16994 -3.40833,4.33988 -5.11249,5.42485c-1.70416,1.08497 -3.24274,2.65643 -6.81665,4.33988c-3.295,1.55203 -6.76054,1.24152 -8.52082,2.16994c-4.97883,2.62594 -9.43408,4.0049 -13.63331,5.42485c-2.60425,0.88061 -6.80407,2.28871 -12.78122,3.25491c-7.65448,1.23734 -17.06152,1.94111 -25.56245,3.25491c-5.98124,0.92438 -11.07706,1.08497 -14.48539,1.08497c-5.11249,0 -5.8144,-1.61255 -7.66873,-2.16994c-0.82928,-0.24929 -3.15737,-1.46058 -5.11249,-3.25491c-1.54567,-1.41856 -2.68351,-1.59954 -3.40833,-2.16994c-1.62074,-1.27546 -1.63395,-1.50471 -2.55624,-4.33988c-0.65217,-2.00475 -1.70416,-3.25491 -2.55624,-3.25491c0,0 -1.70416,-1.08497 -2.55624,-1.08497c0,0 -0.85208,0 -1.70416,0c-0.85208,0 -1.72697,-0.24929 -2.55624,0c-1.85433,0.55738 -1.86265,0.75138 -3.40833,2.16994c-1.95512,1.79433 -6.85186,4.17413 -10.22498,5.42485c-2.58706,0.95925 -5.00902,2.70534 -7.66873,3.25491c-2.52325,0.52139 -5.96457,0 -8.52082,0c-3.40833,0 -8.5664,0.49855 -10.22498,0c-1.85433,-0.55738 -3.43113,-1.92065 -4.26041,-2.16994c-1.85433,-0.55738 -2.68598,-2.42449 -4.26041,-3.25491c-2.2266,-1.17437 -3.56682,-2.92132 -5.11249,-4.33988c-1.95512,-1.79433 -2.71838,-4.21134 -4.26041,-7.59479c-1.91266,-4.19664 -2.55624,-6.50982 -2.55624,-8.67976c0,-1.08497 -0.85208,-3.25491 -0.85208,-4.33988c0,-1.08497 0,-1.08497 0,-1.08497c0,0 0,-1.08497 -0.85208,-1.08497c-1.70416,0 -1.71659,0.76423 -4.26041,1.08497c-4.32364,0.54513 -5.96457,1.08497 -6.81665,1.08497c-1.70416,0 -4.26041,0 -6.81665,0c-2.55624,0 -3.4767,0.74784 -5.96457,0c-1.85435,-0.55738 -4.26041,-1.08497 -7.66873,-1.08497c-3.40833,0 -6.81665,0 -9.3729,0c-2.55624,0 -4.37373,0.46706 -7.66873,-1.08497c-1.78696,-0.84171 -4.15945,-2.37638 -6.81665,-4.33988c-1.64792,-1.21771 -4.26041,-3.25491 -5.11249,-5.42485c-0.85208,-2.16994 -1.70416,-4.33988 -1.70416,-7.59479c0,-2.16994 0,-5.42485 0,-8.67976c0,-2.16994 0,-3.25491 1.70416,-5.42485c0.85208,-1.08497 2.70374,-4.18009 3.40833,-5.42485c1.11405,-1.96813 0.93549,-3.06442 2.55624,-4.33988c0.72482,-0.5704 0.85208,-1.08497 0.85208,-1.08497c0.85208,0 0.91695,0.41521 1.70416,0c1.1133,-0.58718 0.85208,-2.16994 0.85208,-2.16994c0.85208,0 1.70416,-1.08497 1.70416,-1.08497c0.85208,-1.08497 0.85208,-1.08497 1.70416,-1.08497c0,0 0,-1.08497 0.85208,-1.08497c0,0 0,0 0,0l0.85208,0l0,0l0,0" id="svg_1" fill="#ffffff"/>
 </g>

</svg>