<svg width="800" height="600" xmlns="http://www.w3.org/2000/svg">

 <g>
  <title>Layer 1</title>
  <rect stroke="#000" id="svg_29" height="133" width="47" y="337.5" x="44" fill="#894F3F"/>
  <rect stroke="#000" id="svg_27" height="121" width="32" y="326.5" x="740" fill="#894F3F"/>
  <rect stroke="#000" id="svg_22" height="133" width="47" y="394.5" x="546" fill="#894F3F"/>
  <rect stroke="#000" id="svg_23" height="133" width="47" y="314.5" x="623" fill="#894F3F"/>
  <path transform="rotate(-50.5977 637.893 300.381)" d="m639,365.5c0,0 0,1 0,1c0,1 0,2 -1,3c-3,3 -6,5 -9,7c-3,2 -4,2 -4,2c-1,0 -3.76108,-0.41589 -7,-2c-2.84072,-1.38934 -4,-2 -4,-2c-2,-1 -2.77025,-3.02676 -3,-4c-1.02749,-4.35251 -1.5405,-6.0535 -2,-8c-0.51374,-2.17624 -0.29289,-4.29291 -1,-5c-0.70711,-0.70709 -1,0 -1,1c0,0 0,0 -1,1c0,0 -2,1 -3,1c-3,0 -4,0 -6,0c-1,0 -1.2987,1.05145 -3,0c-1.90211,-1.17557 -2.67862,-4.12704 -4,-7c-2.4365,-5.29749 -3.34315,-7.87604 -5,-13c-1.26855,-3.9231 -2.49622,-8.90778 -3,-13c-0.24437,-1.98502 0.49346,-4.87857 1,-8c0.64073,-3.94836 1.48626,-5.82376 2,-8c0.4595,-1.9465 0,-2 1,-3c0,0 0,0 0,0c1,1 0,0 0,0c-4,-3 -8.72399,-6.22272 -12,-10c-3.70638,-4.2735 -6.19028,-6.88153 -8,-10c-2.24469,-3.86798 -3,-6 -3,-8c0,-3 -0.48055,-4.03873 0,-7c0.50654,-3.12143 1.55819,-6.51929 5,-9c3.62799,-2.6149 5.70546,-4.34619 8,-6c1.81399,-1.30746 4,-2 4,-2c1,0 1.41886,0.41885 3,2c1.58114,1.58115 3,2 4,2c0,0 1,0 1,0c1,-2 1.92398,-6.03986 3,-8c2.80591,-5.11145 4.71412,-8.21167 7,-11c8.96596,-10.93671 14.38062,-17.44353 20,-19c1.92743,-0.53387 2,0 4,0c2,0 5.88496,1.27431 8,2c4.82303,1.65482 7.87856,2.49345 11,3c0.98709,0.16019 1.14935,0.47427 2,1c1.90211,1.17557 1,4 1,4c1,1 1,1 1,1c2,0 5,0 11,0c4,0 10.92485,1.28473 18,3c4.95547,1.20139 6.61731,2.07611 7,3c0.5412,1.30655 1,1 3,5c1,2 2,6 2,10c0,3 0,6 0,8c0,2 -1,4 -1,5c0,1 0,1 0,2c0,1 3.88152,3.19028 7,5c3.868,2.24469 10.42336,4.42825 16,9c3.28101,2.68979 3.67964,4.02582 4,6c0.50655,3.12143 1,4 1,10c0,4 0,7 0,12c0,4 0,7 0,9c0,1 -1.90633,2.10339 -3,3c-2.78833,2.28589 -8.186,4.69254 -10,6c-2.29454,1.65381 -2,3 -2,5c0,1 0.49345,0.87857 1,4c0.32036,1.97418 0,5 0,7c0,3 0.50705,7.23401 -2,12c-1.67856,3.19098 -3,6 -5,8c-1,1 -3.07613,0.61731 -4,1c-1.30656,0.5412 -2,1 -5,1c-3,0 -6.38687,-0.9176 -9,-2c-2.77164,-1.14804 -5,-1 -7,-1c0,0 -1,-1 -1,-1c-1,0 -3,0 -3,0c0,0 -1,0 -2,0c0,0 -0.82375,0.48627 -3,1c-1.9465,0.4595 -3.07613,-0.38269 -4,0c-1.30656,0.5412 -2,1 -2,1c-1,1 -1,1 -2,1c0,0 -1,0 -1,0c-1,0 -2.69344,0.4588 -4,1c-0.92388,0.38269 -1.82375,1.48627 -4,2c-0.97325,0.22977 -1,0 -3,0c0,0 0,0 0,0c-1,0 -2,0 -2,0c-1,1 -2.29289,0.29291 -3,1c-0.70711,0.70709 -1,1 -2,1l0,0" id="svg_21" stroke="#000" fill="#306856"/>
  <rect stroke="#000" id="svg_19" height="119" width="40" y="327.5" x="465" fill="#894F3F"/>
  <rect stroke="#000" id="svg_18" height="133" width="47" y="305.5" x="337" fill="#894F3F"/>
  <rect stroke="#000" id="svg_17" height="133" width="47" y="418.5" x="381" fill="#894F3F"/>
  <rect stroke="#000" id="svg_16" height="122" width="42" y="377.5" x="274" fill="#894F3F"/>
  <rect stroke="#000" id="svg_15" height="123" width="40" y="338.5" x="183" fill="#894F3F"/>
  <rect stroke="#000" id="svg_13" height="133" width="47" y="390.5" x="117" fill="#894F3F"/>
  <path d="m198,378.5c0,0 0,1 0,1c0,1 0,2 -1,3c-3,3 -6,5 -9,7c-3,2 -4,2 -4,2c-1,0 -3.76108,-0.41589 -7,-2c-2.84072,-1.38934 -4,-2 -4,-2c-2,-1 -2.77025,-3.02676 -3,-4c-1.02749,-4.35251 -1.5405,-6.0535 -2,-8c-0.51374,-2.17624 -0.29289,-4.29291 -1,-5c-0.70711,-0.70709 -1,0 -1,1c0,0 0,0 -1,1c0,0 -2,1 -3,1c-3,0 -4,0 -6,0c-1,0 -1.2987,1.05145 -3,0c-1.90211,-1.17557 -2.67862,-4.12704 -4,-7c-2.4365,-5.29749 -3.34315,-7.87604 -5,-13c-1.26855,-3.9231 -2.49622,-8.90778 -3,-13c-0.24437,-1.98502 0.49346,-4.87857 1,-8c0.64073,-3.94836 1.48626,-5.82376 2,-8c0.4595,-1.9465 0,-2 1,-3c0,0 0,0 0,0c1,1 0,0 0,0c-4,-3 -8.72399,-6.22272 -12,-10c-3.70638,-4.2735 -6.19028,-6.88153 -8,-10c-2.24469,-3.86798 -3,-6 -3,-8c0,-3 -0.48055,-4.03873 0,-7c0.50654,-3.12143 1.55819,-6.51929 5,-9c3.62799,-2.6149 5.70546,-4.34619 8,-6c1.81399,-1.30746 4,-2 4,-2c1,0 1.41886,0.41885 3,2c1.58114,1.58115 3,2 4,2c0,0 1,0 1,0c1,-2 1.92398,-6.03986 3,-8c2.80591,-5.11145 4.71412,-8.21167 7,-11c8.96596,-10.93671 14.38062,-17.44353 20,-19c1.92743,-0.53387 2,0 4,0c2,0 5.88496,1.27431 8,2c4.82303,1.65482 7.87856,2.49345 11,3c0.98709,0.16019 1.14935,0.47427 2,1c1.90211,1.17557 1,4 1,4c1,1 1,1 1,1c2,0 5,0 11,0c4,0 10.92485,1.28473 18,3c4.95547,1.20139 6.61731,2.07611 7,3c0.5412,1.30655 1,1 3,5c1,2 2,6 2,10c0,3 0,6 0,8c0,2 -1,4 -1,5c0,1 0,1 0,2c0,1 3.88152,3.19028 7,5c3.868,2.24469 10.42336,4.42825 16,9c3.28101,2.68979 3.67964,4.02582 4,6c0.50655,3.12143 1,4 1,10c0,4 0,7 0,12c0,4 0,7 0,9c0,1 -1.90633,2.10339 -3,3c-2.78833,2.28589 -8.186,4.69254 -10,6c-2.29454,1.65381 -2,3 -2,5c0,1 0.49345,0.87857 1,4c0.32036,1.97418 0,5 0,7c0,3 0.50705,7.23401 -2,12c-1.67856,3.19098 -3,6 -5,8c-1,1 -3.07613,0.61731 -4,1c-1.30656,0.5412 -2,1 -5,1c-3,0 -6.38687,-0.9176 -9,-2c-2.77164,-1.14804 -5,-1 -7,-1c0,0 -1,-1 -1,-1c-1,0 -3,0 -3,0c0,0 -1,0 -2,0c0,0 -0.82375,0.48627 -3,1c-1.9465,0.4595 -3.07613,-0.38269 -4,0c-1.30656,0.5412 -2,1 -2,1c-1,1 -1,1 -2,1c0,0 -1,0 -1,0c-1,0 -2.69344,0.4588 -4,1c-0.92388,0.38269 -1.82375,1.48627 -4,2c-0.97325,0.22977 -1,0 -3,0c0,0 0,0 0,0c-1,0 -2,0 -2,0c-1,1 -2.29289,0.29291 -3,1c-0.70711,0.70709 -1,1 -2,1l0,0" id="svg_2" stroke="#000" fill="#306856"/>
  <path transform="rotate(53.084 71.893 341.381)" d="m73,406.5c0,0 0,1 0,1c0,1 0,2 -1,3c-3,3 -6,5 -9,7c-3,2 -4,2 -4,2c-1,0 -3.76108,-0.41589 -7,-2c-2.84072,-1.38934 -4,-2 -4,-2c-2,-1 -2.77025,-3.02676 -3,-4c-1.02749,-4.35251 -1.5405,-6.0535 -2,-8c-0.51374,-2.17624 -0.29289,-4.29291 -1,-5c-0.70711,-0.70709 -1,0 -1,1c0,0 0,0 -1,1c0,0 -2,1 -3,1c-3,0 -4,0 -6,0c-1,0 -1.2987,1.05145 -3,0c-1.90211,-1.17557 -2.67862,-4.12704 -4,-7c-2.4365,-5.29749 -3.34315,-7.87604 -5,-13c-1.26855,-3.9231 -2.49622,-8.90778 -3,-13c-0.24437,-1.98502 0.49346,-4.87857 1,-8c0.64073,-3.94836 1.48626,-5.82376 2,-8c0.4595,-1.9465 0,-2 1,-3c0,0 0,0 0,0c1,1 0,0 0,0c-4,-3 -8.72399,-6.22272 -12,-10c-3.70638,-4.2735 -6.19028,-6.88153 -8,-10c-2.24469,-3.86798 -3,-6 -3,-8c0,-3 -0.48055,-4.03873 0,-7c0.50654,-3.12143 1.55819,-6.51929 5,-9c3.62799,-2.6149 5.70546,-4.34619 8,-6c1.81399,-1.30746 4,-2 4,-2c1,0 1.41886,0.41885 3,2c1.58114,1.58115 3,2 4,2c0,0 1,0 1,0c1,-2 1.92398,-6.03986 3,-8c2.80591,-5.11145 4.71412,-8.21167 7,-11c8.96596,-10.93671 14.38062,-17.44353 20,-19c1.92743,-0.53387 2,0 4,0c2,0 5.88496,1.27431 8,2c4.82303,1.65482 7.87856,2.49345 11,3c0.98709,0.16019 1.14935,0.47427 2,1c1.90211,1.17557 1,4 1,4c1,1 1,1 1,1c2,0 5,0 11,0c4,0 10.92485,1.28473 18,3c4.95547,1.20139 6.61731,2.07611 7,3c0.5412,1.30655 1,1 3,5c1,2 2,6 2,10c0,3 0,6 0,8c0,2 -1,4 -1,5c0,1 0,1 0,2c0,1 3.88152,3.19028 7,5c3.868,2.24469 10.42336,4.42825 16,9c3.28101,2.68979 3.67964,4.02582 4,6c0.50655,3.12143 1,4 1,10c0,4 0,7 0,12c0,4 0,7 0,9c0,1 -1.90633,2.10339 -3,3c-2.78833,2.28589 -8.186,4.69254 -10,6c-2.29454,1.65381 -2,3 -2,5c0,1 0.49345,0.87857 1,4c0.32036,1.97418 0,5 0,7c0,3 0.50705,7.23401 -2,12c-1.67856,3.19098 -3,6 -5,8c-1,1 -3.07613,0.61731 -4,1c-1.30656,0.5412 -2,1 -5,1c-3,0 -6.38687,-0.9176 -9,-2c-2.77164,-1.14804 -5,-1 -7,-1c0,0 -1,-1 -1,-1c-1,0 -3,0 -3,0c0,0 -1,0 -2,0c0,0 -0.82375,0.48627 -3,1c-1.9465,0.4595 -3.07613,-0.38269 -4,0c-1.30656,0.5412 -2,1 -2,1c-1,1 -1,1 -2,1c0,0 -1,0 -1,0c-1,0 -2.69344,0.4588 -4,1c-0.92388,0.38269 -1.82375,1.48627 -4,2c-0.97325,0.22977 -1,0 -3,0c0,0 0,0 0,0c-1,0 -2,0 -2,0c-1,1 -2.29289,0.29291 -3,1c-0.70711,0.70709 -1,1 -2,1l0,0" id="svg_28" stroke="#000" fill="#306856"/>
  <path transform="rotate(53.084 134.893 376.381)" d="m136,441.5c0,0 0,1 0,1c0,1 0,2 -1,3c-3,3 -6,5 -9,7c-3,2 -4,2 -4,2c-1,0 -3.76108,-0.41589 -7,-2c-2.84072,-1.38934 -4,-2 -4,-2c-2,-1 -2.77025,-3.02676 -3,-4c-1.02749,-4.35251 -1.5405,-6.0535 -2,-8c-0.51374,-2.17624 -0.29289,-4.29291 -1,-5c-0.70711,-0.70709 -1,0 -1,1c0,0 0,0 -1,1c0,0 -2,1 -3,1c-3,0 -4,0 -6,0c-1,0 -1.2987,1.05145 -3,0c-1.90211,-1.17557 -2.67862,-4.12704 -4,-7c-2.4365,-5.29749 -3.34315,-7.87604 -5,-13c-1.26855,-3.9231 -2.49622,-8.90778 -3,-13c-0.24437,-1.98502 0.49346,-4.87857 1,-8c0.64073,-3.94836 1.48626,-5.82376 2,-8c0.4595,-1.9465 0,-2 1,-3c0,0 0,0 0,0c1,1 0,0 0,0c-4,-3 -8.72399,-6.22272 -12,-10c-3.70638,-4.2735 -6.19028,-6.88153 -8,-10c-2.24469,-3.86798 -3,-6 -3,-8c0,-3 -0.48055,-4.03873 0,-7c0.50654,-3.12143 1.55819,-6.51929 5,-9c3.62799,-2.6149 5.70546,-4.34619 8,-6c1.81399,-1.30746 4,-2 4,-2c1,0 1.41886,0.41885 3,2c1.58114,1.58115 3,2 4,2c0,0 1,0 1,0c1,-2 1.92398,-6.03986 3,-8c2.80591,-5.11145 4.71412,-8.21167 7,-11c8.96596,-10.93671 14.38062,-17.44353 20,-19c1.92743,-0.53387 2,0 4,0c2,0 5.88496,1.27431 8,2c4.82303,1.65482 7.87856,2.49345 11,3c0.98709,0.16019 1.14935,0.47427 2,1c1.90211,1.17557 1,4 1,4c1,1 1,1 1,1c2,0 5,0 11,0c4,0 10.92485,1.28473 18,3c4.95547,1.20139 6.61731,2.07611 7,3c0.5412,1.30655 1,1 3,5c1,2 2,6 2,10c0,3 0,6 0,8c0,2 -1,4 -1,5c0,1 0,1 0,2c0,1 3.88152,3.19028 7,5c3.868,2.24469 10.42336,4.42825 16,9c3.28101,2.68979 3.67964,4.02582 4,6c0.50655,3.12143 1,4 1,10c0,4 0,7 0,12c0,4 0,7 0,9c0,1 -1.90633,2.10339 -3,3c-2.78833,2.28589 -8.186,4.69254 -10,6c-2.29454,1.65381 -2,3 -2,5c0,1 0.49345,0.87857 1,4c0.32036,1.97418 0,5 0,7c0,3 0.50705,7.23401 -2,12c-1.67856,3.19098 -3,6 -5,8c-1,1 -3.07613,0.61731 -4,1c-1.30656,0.5412 -2,1 -5,1c-3,0 -6.38687,-0.9176 -9,-2c-2.77164,-1.14804 -5,-1 -7,-1c0,0 -1,-1 -1,-1c-1,0 -3,0 -3,0c0,0 -1,0 -2,0c0,0 -0.82375,0.48627 -3,1c-1.9465,0.4595 -3.07613,-0.38269 -4,0c-1.30656,0.5412 -2,1 -2,1c-1,1 -1,1 -2,1c0,0 -1,0 -1,0c-1,0 -2.69344,0.4588 -4,1c-0.92388,0.38269 -1.82375,1.48627 -4,2c-0.97325,0.22977 -1,0 -3,0c0,0 0,0 0,0c-1,0 -2,0 -2,0c-1,1 -2.29289,0.29291 -3,1c-0.70711,0.70709 -1,1 -2,1l0,0" id="svg_8" stroke="#000" fill="#306856"/>
  <path transform="rotate(46.597 361.893 300.381)" d="m363,365.5c0,0 0,1 0,1c0,1 0,2 -1,3c-3,3 -6,5 -9,7c-3,2 -4,2 -4,2c-1,0 -3.76108,-0.41589 -7,-2c-2.84072,-1.38934 -4,-2 -4,-2c-2,-1 -2.77025,-3.02676 -3,-4c-1.02749,-4.35251 -1.5405,-6.0535 -2,-8c-0.51374,-2.17624 -0.29289,-4.29291 -1,-5c-0.70711,-0.70709 -1,0 -1,1c0,0 0,0 -1,1c0,0 -2,1 -3,1c-3,0 -4,0 -6,0c-1,0 -1.2987,1.05145 -3,0c-1.90211,-1.17557 -2.67862,-4.12704 -4,-7c-2.4365,-5.29749 -3.34315,-7.87604 -5,-13c-1.26855,-3.9231 -2.49622,-8.90778 -3,-13c-0.24437,-1.98502 0.49346,-4.87857 1,-8c0.64073,-3.94836 1.48626,-5.82376 2,-8c0.4595,-1.9465 0,-2 1,-3c0,0 0,0 0,0c1,1 0,0 0,0c-4,-3 -8.72399,-6.22272 -12,-10c-3.70638,-4.2735 -6.19028,-6.88153 -8,-10c-2.24469,-3.86798 -3,-6 -3,-8c0,-3 -0.48055,-4.03873 0,-7c0.50654,-3.12143 1.55819,-6.51929 5,-9c3.62799,-2.6149 5.70546,-4.34619 8,-6c1.81399,-1.30746 4,-2 4,-2c1,0 1.41886,0.41885 3,2c1.58114,1.58115 3,2 4,2c0,0 1,0 1,0c1,-2 1.92398,-6.03986 3,-8c2.80591,-5.11145 4.71412,-8.21167 7,-11c8.96596,-10.93671 14.38062,-17.44353 20,-19c1.92743,-0.53387 2,0 4,0c2,0 5.88496,1.27431 8,2c4.82303,1.65482 7.87856,2.49345 11,3c0.98709,0.16019 1.14935,0.47427 2,1c1.90211,1.17557 1,4 1,4c1,1 1,1 1,1c2,0 5,0 11,0c4,0 10.92485,1.28473 18,3c4.95547,1.20139 6.61731,2.07611 7,3c0.5412,1.30655 1,1 3,5c1,2 2,6 2,10c0,3 0,6 0,8c0,2 -1,4 -1,5c0,1 0,1 0,2c0,1 3.88152,3.19028 7,5c3.868,2.24469 10.42336,4.42825 16,9c3.28101,2.68979 3.67964,4.02582 4,6c0.50655,3.12143 1,4 1,10c0,4 0,7 0,12c0,4 0,7 0,9c0,1 -1.90633,2.10339 -3,3c-2.78833,2.28589 -8.186,4.69254 -10,6c-2.29454,1.65381 -2,3 -2,5c0,1 0.49345,0.87857 1,4c0.32036,1.97418 0,5 0,7c0,3 0.50705,7.23401 -2,12c-1.67856,3.19098 -3,6 -5,8c-1,1 -3.07613,0.61731 -4,1c-1.30656,0.5412 -2,1 -5,1c-3,0 -6.38687,-0.9176 -9,-2c-2.77164,-1.14804 -5,-1 -7,-1c0,0 -1,-1 -1,-1c-1,0 -3,0 -3,0c0,0 -1,0 -2,0c0,0 -0.82375,0.48627 -3,1c-1.9465,0.4595 -3.07613,-0.38269 -4,0c-1.30656,0.5412 -2,1 -2,1c-1,1 -1,1 -2,1c0,0 -1,0 -1,0c-1,0 -2.69344,0.4588 -4,1c-0.92388,0.38269 -1.82375,1.48627 -4,2c-0.97325,0.22977 -1,0 -3,0c0,0 0,0 0,0c-1,0 -2,0 -2,0c-1,1 -2.29289,0.29291 -3,1c-0.70711,0.70709 -1,1 -2,1l0,0" id="svg_11" stroke="#000" fill="#306856"/>
  <path transform="rotate(97.3256 305.893 357.381)" stroke="#000" d="m307,422.5c0,0 0,1 0,1c0,1 0,2 -1,3c-3,3 -6,5 -9,7c-3,2 -4,2 -4,2c-1,0 -3.76108,-0.41589 -7,-2c-2.84072,-1.38934 -4,-2 -4,-2c-2,-1 -2.77025,-3.02676 -3,-4c-1.02749,-4.35251 -1.5405,-6.0535 -2,-8c-0.51374,-2.17624 -0.29289,-4.29291 -1,-5c-0.70711,-0.70709 -1,0 -1,1c0,0 0,0 -1,1c0,0 -2,1 -3,1c-3,0 -4,0 -6,0c-1,0 -1.2987,1.05145 -3,0c-1.90211,-1.17557 -2.67862,-4.12704 -4,-7c-2.4365,-5.29749 -3.34315,-7.87604 -5,-13c-1.26855,-3.9231 -2.49622,-8.90778 -3,-13c-0.24437,-1.98502 0.49346,-4.87857 1,-8c0.64073,-3.94836 1.48626,-5.82376 2,-8c0.4595,-1.9465 0,-2 1,-3c0,0 0,0 0,0c1,1 0,0 0,0c-4,-3 -8.72399,-6.22272 -12,-10c-3.70638,-4.2735 -6.19028,-6.88153 -8,-10c-2.24469,-3.86798 -3,-6 -3,-8c0,-3 -0.48055,-4.03873 0,-7c0.50654,-3.12143 1.55819,-6.51929 5,-9c3.62799,-2.6149 5.70546,-4.34619 8,-6c1.81399,-1.30746 4,-2 4,-2c1,0 1.41886,0.41885 3,2c1.58114,1.58115 3,2 4,2c0,0 1,0 1,0c1,-2 1.92398,-6.03986 3,-8c2.80591,-5.11145 4.71412,-8.21167 7,-11c8.96596,-10.93671 14.38062,-17.44353 20,-19c1.92743,-0.53387 2,0 4,0c2,0 5.88496,1.27431 8,2c4.82303,1.65482 7.87856,2.49345 11,3c0.98709,0.16019 1.14935,0.47427 2,1c1.90211,1.17557 1,4 1,4c1,1 1,1 1,1c2,0 5,0 11,0c4,0 10.92485,1.28473 18,3c4.95547,1.20139 6.61731,2.07611 7,3c0.5412,1.30655 1,1 3,5c1,2 2,6 2,10c0,3 0,6 0,8c0,2 -1,4 -1,5c0,1 0,1 0,2c0,1 3.88152,3.19028 7,5c3.868,2.24469 10.42336,4.42825 16,9c3.28101,2.68979 3.67964,4.02582 4,6c0.50655,3.12143 1,4 1,10c0,4 0,7 0,12c0,4 0,7 0,9c0,1 -1.90633,2.10339 -3,3c-2.78833,2.28589 -8.186,4.69254 -10,6c-2.29454,1.65381 -2,3 -2,5c0,1 0.49345,0.87857 1,4c0.32036,1.97418 0,5 0,7c0,3 0.50705,7.23401 -2,12c-1.67856,3.19098 -3,6 -5,8c-1,1 -3.07613,0.61731 -4,1c-1.30656,0.5412 -2,1 -5,1c-3,0 -6.38687,-0.9176 -9,-2c-2.77164,-1.14804 -5,-1 -7,-1c0,0 -1,-1 -1,-1c-1,0 -3,0 -3,0c0,0 -1,0 -2,0c0,0 -0.82375,0.48627 -3,1c-1.9465,0.4595 -3.07613,-0.38269 -4,0c-1.30656,0.5412 -2,1 -2,1c-1,1 -1,1 -2,1c0,0 -1,0 -1,0c-1,0 -2.69344,0.4588 -4,1c-0.92388,0.38269 -1.82375,1.48627 -4,2c-0.97325,0.22977 -1,0 -3,0c0,0 0,0 0,0c-1,0 -2,0 -2,0c-1,1 -2.29289,0.29291 -3,1c-0.70711,0.70709 -1,1 -2,1l0,0" id="svg_9" fill="#306856"/>
  <path transform="rotate(-28.5462 478.893 308.381)" d="m480,373.5c0,0 0,1 0,1c0,1 0,2 -1,3c-3,3 -6,5 -9,7c-3,2 -4,2 -4,2c-1,0 -3.76108,-0.41589 -7,-2c-2.84072,-1.38934 -4,-2 -4,-2c-2,-1 -2.77025,-3.02676 -3,-4c-1.02749,-4.35251 -1.5405,-6.0535 -2,-8c-0.51374,-2.17624 -0.29289,-4.29291 -1,-5c-0.70711,-0.70709 -1,0 -1,1c0,0 0,0 -1,1c0,0 -2,1 -3,1c-3,0 -4,0 -6,0c-1,0 -1.2987,1.05145 -3,0c-1.90211,-1.17557 -2.67862,-4.12704 -4,-7c-2.4365,-5.29749 -3.34315,-7.87604 -5,-13c-1.26855,-3.9231 -2.49622,-8.90778 -3,-13c-0.24437,-1.98502 0.49346,-4.87857 1,-8c0.64073,-3.94836 1.48626,-5.82376 2,-8c0.4595,-1.9465 0,-2 1,-3c0,0 0,0 0,0c1,1 0,0 0,0c-4,-3 -8.72399,-6.22272 -12,-10c-3.70638,-4.2735 -6.19028,-6.88153 -8,-10c-2.24469,-3.86798 -3,-6 -3,-8c0,-3 -0.48055,-4.03873 0,-7c0.50654,-3.12143 1.55819,-6.51929 5,-9c3.62799,-2.6149 5.70546,-4.34619 8,-6c1.81399,-1.30746 4,-2 4,-2c1,0 1.41886,0.41885 3,2c1.58114,1.58115 3,2 4,2c0,0 1,0 1,0c1,-2 1.92398,-6.03986 3,-8c2.80591,-5.11145 4.71412,-8.21167 7,-11c8.96596,-10.93671 14.38062,-17.44353 20,-19c1.92743,-0.53387 2,0 4,0c2,0 5.88496,1.27431 8,2c4.82303,1.65482 7.87856,2.49345 11,3c0.98709,0.16019 1.14935,0.47427 2,1c1.90211,1.17557 1,4 1,4c1,1 1,1 1,1c2,0 5,0 11,0c4,0 10.92485,1.28473 18,3c4.95547,1.20139 6.61731,2.07611 7,3c0.5412,1.30655 1,1 3,5c1,2 2,6 2,10c0,3 0,6 0,8c0,2 -1,4 -1,5c0,1 0,1 0,2c0,1 3.88152,3.19028 7,5c3.868,2.24469 10.42336,4.42825 16,9c3.28101,2.68979 3.67964,4.02582 4,6c0.50655,3.12143 1,4 1,10c0,4 0,7 0,12c0,4 0,7 0,9c0,1 -1.90633,2.10339 -3,3c-2.78833,2.28589 -8.186,4.69254 -10,6c-2.29454,1.65381 -2,3 -2,5c0,1 0.49345,0.87857 1,4c0.32036,1.97418 0,5 0,7c0,3 0.50705,7.23401 -2,12c-1.67856,3.19098 -3,6 -5,8c-1,1 -3.07613,0.61731 -4,1c-1.30656,0.5412 -2,1 -5,1c-3,0 -6.38687,-0.9176 -9,-2c-2.77164,-1.14804 -5,-1 -7,-1c0,0 -1,-1 -1,-1c-1,0 -3,0 -3,0c0,0 -1,0 -2,0c0,0 -0.82375,0.48627 -3,1c-1.9465,0.4595 -3.07613,-0.38269 -4,0c-1.30656,0.5412 -2,1 -2,1c-1,1 -1,1 -2,1c0,0 -1,0 -1,0c-1,0 -2.69344,0.4588 -4,1c-0.92388,0.38269 -1.82375,1.48627 -4,2c-0.97325,0.22977 -1,0 -3,0c0,0 0,0 0,0c-1,0 -2,0 -2,0c-1,1 -2.29289,0.29291 -3,1c-0.70711,0.70709 -1,1 -2,1l0,0" id="svg_12" stroke="#000" fill="#306856"/>
  <path d="m404,445.5c0,0 0,1 0,1c0,1 0,2 -1,3c-3,3 -6,5 -9,7c-3,2 -4,2 -4,2c-1,0 -3.76108,-0.41589 -7,-2c-2.84072,-1.38934 -4,-2 -4,-2c-2,-1 -2.77025,-3.02676 -3,-4c-1.02749,-4.35251 -1.5405,-6.0535 -2,-8c-0.51374,-2.17624 -0.29289,-4.29291 -1,-5c-0.70711,-0.70709 -1,0 -1,1c0,0 0,0 -1,1c0,0 -2,1 -3,1c-3,0 -4,0 -6,0c-1,0 -1.2987,1.05145 -3,0c-1.90211,-1.17557 -2.67862,-4.12704 -4,-7c-2.4365,-5.29749 -3.34315,-7.87604 -5,-13c-1.26855,-3.9231 -2.49622,-8.90778 -3,-13c-0.24437,-1.98502 0.49346,-4.87857 1,-8c0.64073,-3.94836 1.48626,-5.82376 2,-8c0.4595,-1.9465 0,-2 1,-3c0,0 0,0 0,0c1,1 0,0 0,0c-4,-3 -8.72399,-6.22272 -12,-10c-3.70638,-4.2735 -6.19028,-6.88153 -8,-10c-2.24469,-3.86798 -3,-6 -3,-8c0,-3 -0.48055,-4.03873 0,-7c0.50654,-3.12143 1.55819,-6.51929 5,-9c3.62799,-2.6149 5.70546,-4.34619 8,-6c1.81399,-1.30746 4,-2 4,-2c1,0 1.41886,0.41885 3,2c1.58114,1.58115 3,2 4,2c0,0 1,0 1,0c1,-2 1.92398,-6.03986 3,-8c2.80591,-5.11145 4.71412,-8.21167 7,-11c8.96596,-10.93671 14.38062,-17.44353 20,-19c1.92743,-0.53387 2,0 4,0c2,0 5.88496,1.27431 8,2c4.82303,1.65482 7.87856,2.49345 11,3c0.98709,0.16019 1.14935,0.47427 2,1c1.90211,1.17557 1,4 1,4c1,1 1,1 1,1c2,0 5,0 11,0c4,0 10.92485,1.28473 18,3c4.95547,1.20139 6.61731,2.07611 7,3c0.5412,1.30655 1,1 3,5c1,2 2,6 2,10c0,3 0,6 0,8c0,2 -1,4 -1,5c0,1 0,1 0,2c0,1 3.88152,3.19028 7,5c3.868,2.24469 10.42336,4.42825 16,9c3.28101,2.68979 3.67964,4.02582 4,6c0.50655,3.12143 1,4 1,10c0,4 0,7 0,12c0,4 0,7 0,9c0,1 -1.90633,2.10339 -3,3c-2.78833,2.28589 -8.186,4.69254 -10,6c-2.29454,1.65381 -2,3 -2,5c0,1 0.49345,0.87857 1,4c0.32036,1.97418 0,5 0,7c0,3 0.50705,7.23401 -2,12c-1.67856,3.19098 -3,6 -5,8c-1,1 -3.07613,0.61731 -4,1c-1.30656,0.5412 -2,1 -5,1c-3,0 -6.38687,-0.9176 -9,-2c-2.77164,-1.14804 -5,-1 -7,-1c0,0 -1,-1 -1,-1c-1,0 -3,0 -3,0c0,0 -1,0 -2,0c0,0 -0.82375,0.48627 -3,1c-1.9465,0.4595 -3.07613,-0.38269 -4,0c-1.30656,0.5412 -2,1 -2,1c-1,1 -1,1 -2,1c0,0 -1,0 -1,0c-1,0 -2.69344,0.4588 -4,1c-0.92388,0.38269 -1.82375,1.48627 -4,2c-0.97325,0.22977 -1,0 -3,0c0,0 0,0 0,0c-1,0 -2,0 -2,0c-1,1 -2.29289,0.29291 -3,1c-0.70711,0.70709 -1,1 -2,1l0,0" id="svg_10" stroke="#000" fill="#306856"/>
  <path transform="rotate(49.1434 564.893 370.381)" d="m566,435.5c0,0 0,1 0,1c0,1 0,2 -1,3c-3,3 -6,5 -9,7c-3,2 -4,2 -4,2c-1,0 -3.76108,-0.41589 -7,-2c-2.84072,-1.38934 -4,-2 -4,-2c-2,-1 -2.77025,-3.02676 -3,-4c-1.02749,-4.35251 -1.5405,-6.0535 -2,-8c-0.51374,-2.17624 -0.29289,-4.29291 -1,-5c-0.70711,-0.70709 -1,0 -1,1c0,0 0,0 -1,1c0,0 -2,1 -3,1c-3,0 -4,0 -6,0c-1,0 -1.2987,1.05145 -3,0c-1.90211,-1.17557 -2.67862,-4.12704 -4,-7c-2.4365,-5.29749 -3.34315,-7.87604 -5,-13c-1.26855,-3.9231 -2.49622,-8.90778 -3,-13c-0.24437,-1.98502 0.49346,-4.87857 1,-8c0.64073,-3.94836 1.48626,-5.82376 2,-8c0.4595,-1.9465 0,-2 1,-3c0,0 0,0 0,0c1,1 0,0 0,0c-4,-3 -8.72399,-6.22272 -12,-10c-3.70638,-4.2735 -6.19028,-6.88153 -8,-10c-2.24469,-3.86798 -3,-6 -3,-8c0,-3 -0.48055,-4.03873 0,-7c0.50654,-3.12143 1.55819,-6.51929 5,-9c3.62799,-2.6149 5.70546,-4.34619 8,-6c1.81399,-1.30746 4,-2 4,-2c1,0 1.41886,0.41885 3,2c1.58114,1.58115 3,2 4,2c0,0 1,0 1,0c1,-2 1.92398,-6.03986 3,-8c2.80591,-5.11145 4.71412,-8.21167 7,-11c8.96596,-10.93671 14.38062,-17.44353 20,-19c1.92743,-0.53387 2,0 4,0c2,0 5.88496,1.27431 8,2c4.82303,1.65482 7.87856,2.49345 11,3c0.98709,0.16019 1.14935,0.47427 2,1c1.90211,1.17557 1,4 1,4c1,1 1,1 1,1c2,0 5,0 11,0c4,0 10.92485,1.28473 18,3c4.95547,1.20139 6.61731,2.07611 7,3c0.5412,1.30655 1,1 3,5c1,2 2,6 2,10c0,3 0,6 0,8c0,2 -1,4 -1,5c0,1 0,1 0,2c0,1 3.88152,3.19028 7,5c3.868,2.24469 10.42336,4.42825 16,9c3.28101,2.68979 3.67964,4.02582 4,6c0.50655,3.12143 1,4 1,10c0,4 0,7 0,12c0,4 0,7 0,9c0,1 -1.90633,2.10339 -3,3c-2.78833,2.28589 -8.186,4.69254 -10,6c-2.29454,1.65381 -2,3 -2,5c0,1 0.49345,0.87857 1,4c0.32036,1.97418 0,5 0,7c0,3 0.50705,7.23401 -2,12c-1.67856,3.19098 -3,6 -5,8c-1,1 -3.07613,0.61731 -4,1c-1.30656,0.5412 -2,1 -5,1c-3,0 -6.38687,-0.9176 -9,-2c-2.77164,-1.14804 -5,-1 -7,-1c0,0 -1,-1 -1,-1c-1,0 -3,0 -3,0c0,0 -1,0 -2,0c0,0 -0.82375,0.48627 -3,1c-1.9465,0.4595 -3.07613,-0.38269 -4,0c-1.30656,0.5412 -2,1 -2,1c-1,1 -1,1 -2,1c0,0 -1,0 -1,0c-1,0 -2.69344,0.4588 -4,1c-0.92388,0.38269 -1.82375,1.48627 -4,2c-0.97325,0.22977 -1,0 -3,0c0,0 0,0 0,0c-1,0 -2,0 -2,0c-1,1 -2.29289,0.29291 -3,1c-0.70711,0.70709 -1,1 -2,1l0,0" id="svg_20" stroke="#000" fill="#306856"/>
  <path transform="rotate(-32.202 749.893 323.881)" stroke="#000" d="m750.86722,381.74147c0,0 0,0.88854 0,0.88854c0,0.88854 0,1.77708 -0.87985,2.66562c-2.63955,2.66562 -5.2791,4.44269 -7.91865,6.21977c-2.63955,1.77708 -3.5194,1.77708 -3.5194,1.77708c-0.87985,0 -3.30919,-0.36953 -6.15895,-1.77708c-2.49941,-1.23448 -3.5194,-1.77708 -3.5194,-1.77708c-1.7597,-0.88854 -2.4374,-2.68939 -2.63955,-3.55415c-0.90404,-3.86737 -1.35541,-5.37877 -1.7597,-7.10831c-0.45201,-1.93367 -0.2577,-3.81442 -0.87985,-4.44269c-0.62215,-0.62828 -0.87985,0 -0.87985,0.88854c0,0 0,0 -0.87985,0.88854c0,0 -1.7597,0.88854 -2.63955,0.88854c-2.63955,0 -3.5194,0 -5.2791,0c-0.87985,0 -1.14266,0.93425 -2.63955,0c-1.67357,-1.04454 -2.35678,-3.66703 -3.5194,-6.21977c-2.14375,-4.70702 -2.94147,-6.99816 -4.39925,-11.551c-1.11613,-3.48583 -2.1963,-7.9149 -2.63955,-11.551c-0.21501,-1.76377 0.43417,-4.3348 0.87985,-7.10831c0.56375,-3.50827 1.30769,-5.17463 1.7597,-7.10831c0.40429,-1.72954 0,-1.77708 0.87985,-2.66562c0,0 0,0 0,0c0.87985,0.88854 0,0 0,0c-3.5194,-2.66562 -7.6758,-5.52913 -10.5582,-8.88538c-3.26106,-3.79717 -5.44652,-6.1145 -7.0388,-8.88538c-1.97499,-3.43685 -2.63955,-5.33123 -2.63955,-7.10831c0,-2.66562 -0.42281,-3.58857 0,-6.21977c0.44568,-2.77351 1.37097,-5.79264 4.39925,-7.99685c3.19209,-2.32344 5.01995,-3.86176 7.0388,-5.33123c1.59604,-1.16173 3.5194,-1.77708 3.5194,-1.77708c0.87985,0 1.24838,0.37216 2.63955,1.77708c1.39117,1.40491 2.63955,1.77708 3.5194,1.77708c0,0 0.87985,0 0.87985,0c0.87985,-1.77708 1.69281,-5.36665 2.63955,-7.10831c2.46878,-4.54172 4.14772,-7.29638 6.15895,-9.77392c7.8887,-9.71769 12.65279,-15.49925 17.597,-16.88223c1.69585,-0.47436 1.7597,0 3.5194,0c1.7597,0 5.17788,1.13227 7.0388,1.77708c4.24354,1.47037 6.93195,2.21553 9.67835,2.66562c0.86849,0.14233 1.01126,0.42141 1.7597,0.88854c1.67357,1.04454 0.87985,3.55415 0.87985,3.55415c0.87985,0.88854 0.87985,0.88854 0.87985,0.88854c1.7597,0 4.39925,0 9.67835,0c3.5194,0 9.61223,1.14153 15.8373,2.66562c4.36007,1.06748 5.82224,1.8447 6.15895,2.66562c0.47617,1.16092 0.87985,0.88854 2.63955,4.44269c0.87985,1.77708 1.7597,5.33123 1.7597,8.88538c0,2.66562 0,5.33123 0,7.10831c0,1.77708 -0.87985,3.55415 -0.87985,4.44269c0,0.88854 0,0.88854 0,1.77708c0,0.88854 3.41515,2.83469 6.15895,4.44269c3.40326,1.99449 9.17099,3.93467 14.0776,7.99685c2.8868,2.38998 3.23753,3.5771 3.5194,5.33123c0.44569,2.77351 0.87985,3.55415 0.87985,8.88538c0,3.55415 0,6.21977 0,10.66246c0,3.55415 0,6.21977 0,7.99685c0,0.88854 -1.67728,1.86894 -2.63955,2.66562c-2.45331,2.0311 -7.20245,4.1695 -8.7985,5.33123c-2.01885,1.46947 -1.7597,2.66562 -1.7597,4.44269c0,0.88854 0.43416,0.78064 0.87985,3.55415c0.28187,1.75413 0,4.44269 0,6.21977c0,2.66562 0.44613,6.4277 -1.7597,10.66246c-1.47688,2.83531 -2.63955,5.33123 -4.39925,7.10831c-0.87985,0.88854 -2.70653,0.5485 -3.5194,0.88854c-1.14958,0.48088 -1.7597,0.88854 -4.39925,0.88854c-2.63955,0 -5.61949,-0.81532 -7.91865,-1.77708c-2.43863,-1.02008 -4.39925,-0.88854 -6.15895,-0.88854c0,0 -0.87985,-0.88854 -0.87985,-0.88854c-0.87985,0 -2.63955,0 -2.63955,0c0,0 -0.87985,0 -1.7597,0c0,0 -0.72478,0.43207 -2.63955,0.88854c-1.71263,0.40828 -2.70653,-0.34003 -3.5194,0c-1.14958,0.48088 -1.7597,0.88854 -1.7597,0.88854c-0.87985,0.88854 -0.87985,0.88854 -1.7597,0.88854c0,0 -0.87985,0 -0.87985,0c-0.87985,0 -2.36982,0.40766 -3.5194,0.88854c-0.81288,0.34003 -1.60463,1.32061 -3.5194,1.77708c-0.85631,0.20416 -0.87985,0 -2.63955,0c0,0 0,0 0,0c-0.87985,0 -1.7597,0 -1.7597,0c-0.87985,0.88854 -2.0174,0.26026 -2.63955,0.88854c-0.62215,0.62828 -0.87985,0.88854 -1.7597,0.88854l0,0" id="svg_24" fill="#306856"/>
  <rect stroke="#000" id="svg_26" height="133" width="47" y="392.5" x="651" fill="#894F3F"/>
  <path transform="rotate(-69.687 674.893 374.381)" d="m676,439.5c0,0 0,1 0,1c0,1 0,2 -1,3c-3,3 -6,5 -9,7c-3,2 -4,2 -4,2c-1,0 -3.76108,-0.41589 -7,-2c-2.84072,-1.38934 -4,-2 -4,-2c-2,-1 -2.77025,-3.02676 -3,-4c-1.02749,-4.35251 -1.5405,-6.0535 -2,-8c-0.51374,-2.17624 -0.29289,-4.29291 -1,-5c-0.70711,-0.70709 -1,0 -1,1c0,0 0,0 -1,1c0,0 -2,1 -3,1c-3,0 -4,0 -6,0c-1,0 -1.2987,1.05145 -3,0c-1.90211,-1.17557 -2.67862,-4.12704 -4,-7c-2.4365,-5.29749 -3.34315,-7.87604 -5,-13c-1.26855,-3.9231 -2.49622,-8.90778 -3,-13c-0.24437,-1.98502 0.49346,-4.87857 1,-8c0.64073,-3.94836 1.48626,-5.82376 2,-8c0.4595,-1.9465 0,-2 1,-3c0,0 0,0 0,0c1,1 0,0 0,0c-4,-3 -8.72399,-6.22272 -12,-10c-3.70638,-4.2735 -6.19028,-6.88153 -8,-10c-2.24469,-3.86798 -3,-6 -3,-8c0,-3 -0.48055,-4.03873 0,-7c0.50654,-3.12143 1.55819,-6.51929 5,-9c3.62799,-2.6149 5.70546,-4.34619 8,-6c1.81399,-1.30746 4,-2 4,-2c1,0 1.41886,0.41885 3,2c1.58114,1.58115 3,2 4,2c0,0 1,0 1,0c1,-2 1.92398,-6.03986 3,-8c2.80591,-5.11145 4.71412,-8.21167 7,-11c8.96596,-10.93671 14.38062,-17.44353 20,-19c1.92743,-0.53387 2,0 4,0c2,0 5.88496,1.27431 8,2c4.82303,1.65482 7.87856,2.49345 11,3c0.98709,0.16019 1.14935,0.47427 2,1c1.90211,1.17557 1,4 1,4c1,1 1,1 1,1c2,0 5,0 11,0c4,0 10.92485,1.28473 18,3c4.95547,1.20139 6.61731,2.07611 7,3c0.5412,1.30655 1,1 3,5c1,2 2,6 2,10c0,3 0,6 0,8c0,2 -1,4 -1,5c0,1 0,1 0,2c0,1 3.88152,3.19028 7,5c3.868,2.24469 10.42336,4.42825 16,9c3.28101,2.68979 3.67964,4.02582 4,6c0.50655,3.12143 1,4 1,10c0,4 0,7 0,12c0,4 0,7 0,9c0,1 -1.90633,2.10339 -3,3c-2.78833,2.28589 -8.186,4.69254 -10,6c-2.29454,1.65381 -2,3 -2,5c0,1 0.49345,0.87857 1,4c0.32036,1.97418 0,5 0,7c0,3 0.50705,7.23401 -2,12c-1.67856,3.19098 -3,6 -5,8c-1,1 -3.07613,0.61731 -4,1c-1.30656,0.5412 -2,1 -5,1c-3,0 -6.38687,-0.9176 -9,-2c-2.77164,-1.14804 -5,-1 -7,-1c0,0 -1,-1 -1,-1c-1,0 -3,0 -3,0c0,0 -1,0 -2,0c0,0 -0.82375,0.48627 -3,1c-1.9465,0.4595 -3.07613,-0.38269 -4,0c-1.30656,0.5412 -2,1 -2,1c-1,1 -1,1 -2,1c0,0 -1,0 -1,0c-1,0 -2.69344,0.4588 -4,1c-0.92388,0.38269 -1.82375,1.48627 -4,2c-0.97325,0.22977 -1,0 -3,0c0,0 0,0 0,0c-1,0 -2,0 -2,0c-1,1 -2.29289,0.29291 -3,1c-0.70711,0.70709 -1,1 -2,1l0,0" id="svg_25" stroke="#000" fill="#306856"/>
 </g>
</svg>